<?xml version="1.0" standalone="no"?>
<!DOCTYPE svg PUBLIC "-//W3C//DTD SVG 20010904//EN"
 "http://www.w3.org/TR/2001/REC-SVG-20010904/DTD/svg10.dtd">
<svg version="1.0" xmlns="http://www.w3.org/2000/svg"
 width="54.000000pt" height="54.000000pt" viewBox="0 0 54.000000 54.000000"
 preserveAspectRatio="xMidYMid meet">

<g transform="translate(0.000000,54.000000) scale(0.100000,-0.100000)"
fill="#000000" stroke="none">
<path d="M448 460 c-42 -23 -92 -69 -160 -150 l-46 -55 -22 28 c-23 29 -60 36
-79 13 -9 -11 -7 -15 7 -18 12 -3 32 -33 51 -73 18 -37 36 -64 40 -59 4 5 38
55 74 111 37 56 93 129 125 163 32 33 55 60 52 60 -3 -1 -22 -10 -42 -20z"/>
<path d="M145 421 c-94 -54 -126 -167 -74 -262 37 -68 77 -89 166 -89 83 0
117 13 157 60 35 42 50 98 42 154 -13 83 -41 67 -37 -20 3 -62 -15 -103 -61
-138 -67 -50 -148 -43 -206 17 -58 60 -67 125 -27 194 33 56 68 73 149 73 68
0 90 12 57 29 -38 21 -113 13 -166 -18z"/>
</g>
</svg>
